<svg class="svg-icon" style="width: 1em; height: 1em;vertical-align: middle;fill: currentColor;overflow: hidden;" viewBox="0 0 1024 1024" version="1.1" xmlns="http://www.w3.org/2000/svg"><path d="M832 832h-192l-128 192-128-192H192c-106.048 0-192-86.016-192-192V192a192 192 0 0 1 192-192h640c105.984 0 192 85.952 192 192v448c0 105.984-86.016 192-192 192z m64-640a64 64 0 0 0-64-64H192C156.672 128 128 156.672 128 192v448a64 64 0 0 0 64 64h234.624L512 832l85.376-128H832c35.392 0 64-28.608 64-64V192z" fill="" /></svg>